<?xml version="1.0" encoding="UTF-8" standalone="no"?>
<svg
   xmlns:dc="http://purl.org/dc/elements/1.1/"
   xmlns:cc="http://creativecommons.org/ns#"
   xmlns:rdf="http://www.w3.org/1999/02/22-rdf-syntax-ns#"
   xmlns:svg="http://www.w3.org/2000/svg"
   xmlns="http://www.w3.org/2000/svg"
   xmlns:sodipodi="http://sodipodi.sourceforge.net/DTD/sodipodi-0.dtd"
   xmlns:inkscape="http://www.inkscape.org/namespaces/inkscape"
   version="1.1"
   id="Your_Icon"
   x="0px"
   y="0px"
   width="100px"
   height="100px"
   viewBox="0 0 100 100"
   enable-background="new 0 0 100 100"
   xml:space="preserve"
   inkscape:version="0.91 r13725"
   sodipodi:docname="dart.svg"><metadata
     id="metadata3343"><rdf:RDF><cc:Work
         rdf:about=""><dc:format>image/svg+xml</dc:format><dc:type
           rdf:resource="http://purl.org/dc/dcmitype/StillImage" /><dc:title></dc:title></cc:Work></rdf:RDF></metadata><defs
     id="defs3341" /><sodipodi:namedview
     pagecolor="#ffffff"
     bordercolor="#666666"
     borderopacity="1"
     objecttolerance="10"
     gridtolerance="10"
     guidetolerance="10"
     inkscape:pageopacity="0"
     inkscape:pageshadow="2"
     inkscape:window-width="640"
     inkscape:window-height="480"
     id="namedview3339"
     showgrid="false"
     inkscape:zoom="5.36"
     inkscape:cx="50"
     inkscape:cy="50"
     inkscape:window-x="0"
     inkscape:window-y="0"
     inkscape:window-maximized="1"
     inkscape:current-layer="Your_Icon" /><path
     fill="#000000"
     d="M85.939,50.805c1.133,0,2.061-0.54,2.061-1.2c0-0.661-0.928-1.2-2.061-1.2h-0.59  c0.662-1.38,2.435-5.103,2.436-5.439c0.002-0.415-0.116-0.809-0.471-1.305c-0.353-0.498-1.248-1.478-2.57-2.038  c-1.323-0.562-4.742-1.098-7.699,0.08c-2.959,1.178-3.917,2.276-5.312,3.535c-0.97,0.874-1.897,2.258-2.382,3.033H24.162  c-1.136,0-2.064,0.926-2.064,2.061v0.074h-7.688c-1.134,0-2.062,0.54-2.062,1.2c0,0.661,0.927,1.2,2.062,1.2h7.688v0.074  c0,1.135,0.929,2.062,2.064,2.062h45.25c0.499,0.79,1.391,2.099,2.32,2.935c1.396,1.259,2.354,2.359,5.313,3.535  c2.956,1.178,6.375,0.643,7.699,0.08c1.321-0.56,2.217-1.541,2.569-2.038c0.354-0.497,0.473-0.89,0.472-1.305  c-0.002-0.298-1.559-3.538-2.436-5.343L85.939,50.805L85.939,50.805z M25.151,52.002h-0.924c-0.647,0-1.177-0.529-1.177-1.177  v-2.501c0-0.647,0.53-1.177,1.177-1.177h0.924V52.002z"
     id="path3337" /></svg>